<svg width="87" height="32" viewBox="0 0 87 32" fill="white" xmlns="http://www.w3.org/2000/svg">
<path d="M4.6917 6.21792C5.4838 6.53761 6.03218 6.72566 6.82428 6.72566C7.94135 6.72566 8.91625 6.10509 9.50525 5.0708L8.51005 4.11173C8.04291 4.63827 7.33204 4.95796 6.62118 4.95796C5.99156 4.95796 5.54473 4.82633 4.81356 4.52544C4.02145 4.20575 3.47307 4.0177 2.68097 4.0177C1.5639 4.0177 0.589001 4.63828 0 5.67257L0.995208 6.63164C1.46235 6.10509 2.17321 5.7854 2.88407 5.7854C3.51369 5.7854 3.96052 5.91704 4.6917 6.21792Z" fill="white"></path>
<path d="M13.0752 8.44248C13.0752 11.0752 14.9234 13.3319 17.97 13.3319C20.0823 13.3319 21.4634 12.5044 22.2961 10.7179L20.8134 10.1538C20.2651 11.3197 19.3308 11.9027 17.97 11.9027C15.9999 11.9027 14.8219 10.4735 14.8219 8.44248C14.8219 6.41151 15.9999 4.9823 17.97 4.9823C19.3308 4.9823 20.2651 5.56527 20.8134 6.7312L22.2961 6.16704C21.4634 4.38053 20.0823 3.5531 17.97 3.5531C14.9234 3.5531 13.0752 5.80974 13.0752 8.44248Z" fill="white"></path>
<path d="M25.1622 8.44248C25.1622 11.0752 27.1527 13.3319 30.1992 13.3319C33.2458 13.3319 35.2362 11.0752 35.2362 8.44248C35.2362 5.80974 33.2458 3.5531 30.1992 3.5531C27.1527 3.5531 25.1622 5.80974 25.1622 8.44248ZM33.4895 8.44248C33.4895 10.3042 32.2303 11.9027 30.1992 11.9027C28.1682 11.9027 26.9089 10.3042 26.9089 8.44248C26.9089 6.58075 28.1682 4.9823 30.1992 4.9823C32.2303 4.9823 33.4895 6.58075 33.4895 8.44248Z" fill="white"></path>
<path d="M41.941 17.0177H43.6471V13.3319C46.5514 13.3319 48.4403 11.0752 48.4403 8.44248C48.4403 5.80974 46.5514 3.5531 43.6471 3.5531V0.0177002H41.941V3.5531C39.0366 3.5531 37.1477 5.80974 37.1477 8.44248C37.1477 11.0752 39.0366 13.3319 41.941 13.3319V17.0177ZM41.9207 11.9027C40.9661 11.9027 40.2349 11.5642 39.6865 10.906C39.1585 10.229 38.8944 9.40155 38.8944 8.44248C38.8944 7.48341 39.1585 6.65597 39.6865 5.99779C40.2349 5.3396 40.9661 5.00111 41.9207 4.9823H41.941V11.9027H41.9207ZM43.6471 11.9027V4.9823H43.6674C44.622 5.00111 45.3531 5.3396 45.8812 5.99779C46.4296 6.65597 46.6936 7.48341 46.6936 8.44248C46.6936 9.40155 46.4296 10.229 45.8812 10.8872C45.3531 11.5454 44.622 11.8838 43.6674 11.9027H43.6471Z" fill="white"></path>
<path d="M54.5358 13.1814H56.2419V5.13274H59.8368V3.70354H50.9409V5.13274H54.5358V13.1814Z" fill="white"></path>
<path d="M14.8219 28.146H16.528V20.0973H21.4024V28.146H23.1085V18.6681H14.8219V28.146Z" fill="white"></path>
<path d="M27.4167 31.9823H29.1228V26.9425C29.7524 27.7135 30.8898 28.2965 32.2506 28.2965C35.1956 28.2965 36.9423 26.3595 36.9423 23.4071C36.9423 20.4546 35.1956 18.5177 32.2506 18.5177C30.9304 18.5177 29.7524 19.1195 29.1228 19.9281V18.6681H27.4167V31.9823ZM35.1956 23.4071C35.1956 25.4569 34.0176 26.8673 32.0881 26.8673C30.1586 26.8673 28.9806 25.4569 28.9806 23.4071C28.9806 21.3573 30.1586 19.9469 32.0881 19.9469C34.0176 19.9469 35.1956 21.3573 35.1956 23.4071Z" fill="white"></path>
<path d="M39.1179 23.4071C39.1179 26.0398 41.1083 28.2965 44.1548 28.2965C47.2014 28.2965 49.1918 26.0398 49.1918 23.4071C49.1918 20.7743 47.2014 18.5177 44.1548 18.5177C41.1083 18.5177 39.1179 20.7743 39.1179 23.4071ZM47.4451 23.4071C47.4451 25.2688 46.1859 26.8673 44.1548 26.8673C42.1238 26.8673 40.8645 25.2688 40.8645 23.4071C40.8645 21.5454 42.1238 19.9469 44.1548 19.9469C46.1859 19.9469 47.4451 21.5454 47.4451 23.4071Z" fill="white"></path>
<path d="M51.8751 23.4071C51.8751 26.1715 53.8452 28.2965 56.7699 28.2965C58.801 28.2965 60.3649 27.5442 61.421 25.6449L60.0602 24.9867C59.3291 26.2467 58.2323 26.8673 56.7699 26.8673C54.9623 26.8673 53.7234 25.6261 53.6218 23.7456H61.6241V23.0874C61.6241 20.5487 59.8368 18.5177 56.7699 18.5177C53.764 18.5177 51.8751 20.6991 51.8751 23.4071ZM53.7437 22.3164C54.089 20.8308 55.1654 19.9469 56.7699 19.9469C58.4151 19.9469 59.5118 20.8119 59.8165 22.3164H53.7437Z" fill="white"></path>
<path d="M64.9574 28.146H66.6635V23.3883L71.4973 28.146H73.7315L68.4914 23.0122L73.2643 18.6681H71.0302L66.6635 22.6361V18.6681H64.9574V28.146Z" fill="white"></path>
<path d="M81.0862 28.146H82.7923V20.0973H86.3872V18.6681H77.4913V20.0973H81.0862V28.146Z" fill="white"></path>
</svg>